<svg xmlns="http://www.w3.org/2000/svg" xmlns:xlink="http://www.w3.org/1999/xlink" width="12.177345275878906" height="12.2178955078125" viewBox="0 0 12.177345275878906 12.2178955078125" fill="none">
<path d="M4.67569 1.50502L1.85263 1.50502C1.44081 1.50621 1.46822 2.11976 1.49051 2.61867C1.49538 2.72774 1.50001 2.83133 1.49975 2.92184L1.49975 4.33865L0.354327 5.46199C-2.36183e-06 5.82053 -2.36183e-06 6.39737 0.355773 6.75591L1.5012 7.88069L1.5012 9.65171C1.50264 10.1563 2.05655 10.7129 2.55984 10.7143L4.32426 10.7143L5.44509 11.8622C5.80087 12.2179 6.37792 12.2179 6.73369 11.8622L7.85308 10.7143L9.97038 10.7143C10.4737 10.7129 10.7007 10.3312 10.7022 9.82664L10.7022 7.97177L11.823 6.75591C12.1773 6.39882 12.1773 5.82053 11.823 5.46343L10.7022 4.26348L10.7022 2.4086C10.7007 1.90405 10.1208 1.50792 9.6175 1.50647L7.49875 1.50647L6.73225 0.355669C6.37647 1.93566e-05 5.73723 0.0882089 5.38146 0.443858L4.67569 1.50502ZM9.31524 4.26207L7.00415 4.26207L6.08868 7.02341L5.15585 4.26207L2.84476 4.26207L6.08 8.89852L9.31524 4.26207Z" fill-rule="evenodd"  fill="url(#linear_0)" >
</path>
<defs>
<linearGradient id="linear_0" x1="4.254095224645944e-7%" y1="-4.298701171618811e-7%" x2="99.9997916671016%" y2="99.99999999999999%" gradientUnits="objectBoundingBox">
<stop offset="0" stop-color="#FFF269"  />
<stop offset="1" stop-color="#FF9F0F"  />
</linearGradient>
</defs>
</svg>
