<svg xmlns="http://www.w3.org/2000/svg" xmlns:xlink="http://www.w3.org/1999/xlink" width="56" height="50" viewBox="0 0 56 50" fill="none">
<g >
<text transform="translate(0, 30)">
<tspan x="0" y="16.240000000000002" font-size="14" line-height="0"  fill="#464A57"  font-family="SourceHanSansCN-Regular" letter-spacing="0" >
联系我们</tspan>
</text>
</g>
<path d="M29.7522 21.6312L30.1367 21.742L30.5028 21.8356C30.5622 21.8499 30.6208 21.8635 30.6786 21.8765L31.0149 21.9471C31.0693 21.9576 31.1227 21.9677 31.1753 21.9771L31.4796 22.0278L31.7611 22.0668L32.0189 22.0957L32.2519 22.1158L32.5524 22.1325C34.7552 22.2136 36.8728 20.5507 37.7096 18.5981C37.9133 18.1227 37.8626 17.5507 37.521 17.1133C36.5038 15.8106 35.1718 14.8335 33.9333 13.9736L33.2695 13.5149C32.6088 13.0576 31.6999 13.1991 31.2131 13.8468L29.9438 15.7803C29.803 15.9948 29.5229 16.0685 29.3002 15.9412C28.4414 15.45 27.1891 14.6128 26.2882 13.7119C25.3882 12.8119 24.6017 11.6161 24.1603 10.8125C24.0443 10.6014 24.1086 10.3404 24.302 10.1967L26.2531 8.74772C26.8351 8.244 26.9374 7.38835 26.509 6.76166L26.092 6.14692L25.65 5.50317C24.8892 4.41552 23.9993 3.2779 22.8573 2.44489C22.4206 2.12636 21.8682 2.09059 21.4121 2.28605C19.4685 3.11902 17.7868 5.25221 17.8675 7.44767L17.8842 7.74819L17.9043 7.98113L17.9332 8.23892L17.9723 8.52048L18.0229 8.82477C18.0419 8.92986 18.063 9.03857 18.0865 9.15071L18.1644 9.49724L18.2581 9.86331L18.3689 10.2478L18.4981 10.6498C19.1237 12.4961 20.3536 14.8389 22.7574 17.2427C25.1611 19.6465 27.5039 20.8764 29.3502 21.5019L29.7522 21.6312Z"   fill="url(#linear_0)" >
</path>
<path d="M29.9493 6.86432C29.8534 7.40821 30.2166 7.92687 30.7604 8.02277L30.9141 8.05828C31.1661 8.13066 31.3956 8.26811 31.579 8.458C31.799 8.68586 31.9413 8.97754 31.9854 9.29122L32.0083 9.40577C32.1347 9.89023 32.607 10.2137 33.1148 10.1423C33.6617 10.0654 34.0428 9.55979 33.9659 9.01288C33.863 8.28094 33.5311 7.60036 33.0177 7.06868C32.5042 6.537 31.8356 6.1815 31.1077 6.05316L30.9917 6.03953C30.492 6.01005 30.0383 6.35927 29.9493 6.86432Z"   fill="url(#linear_1)" >
</path>
<path d="M30 3.99998C30 4.55226 30.4477 4.99998 31 4.99998L31.2621 5.00858C31.6977 5.03718 32.1263 5.13695 32.5307 5.30446C33.0161 5.50548 33.457 5.80012 33.8284 6.17155C34.1999 6.54299 34.4945 6.98394 34.6955 7.46925C34.8966 7.95455 35 8.4747 35 8.99998L35.0067 9.1166C35.0645 9.61394 35.4872 9.99998 36 9.99998C36.5523 9.99998 37 9.55227 37 8.99998C37 8.21206 36.8448 7.43183 36.5433 6.70389C36.2418 5.97593 35.7998 5.3145 35.2427 4.75734C34.6855 4.20019 34.0241 3.75823 33.2961 3.4567C32.5682 3.15517 31.7879 2.99998 31 2.99998C30.4477 2.99998 30 3.4477 30 3.99998Z"   fill="url(#linear_2)" >
</path>
<defs>
<linearGradient id="linear_0" x1="99.99977786291598%" y1="100.00014272256553%" x2="-4.92058613667999e-8%" y2="-6.893064423196795e-7%" gradientUnits="objectBoundingBox">
<stop offset="0" stop-color="#99A3BA"  />
<stop offset="1" stop-color="#B8C1D4"  />
</linearGradient>
<linearGradient id="linear_1" x1="99.99994069775872%" y1="100.00001870729287%" x2="-2.443614629944451e-7%" y2="-1.1970758466512513e-7%" gradientUnits="objectBoundingBox">
<stop offset="0" stop-color="#99A3BA"  />
<stop offset="1" stop-color="#B8C1D4"  />
</linearGradient>
<linearGradient id="linear_2" x1="100%" y1="100%" x2="0%" y2="0%" gradientUnits="objectBoundingBox">
<stop offset="0" stop-color="#99A3BA"  />
<stop offset="1" stop-color="#B8C1D4"  />
</linearGradient>
</defs>
</svg>
