<svg xmlns="http://www.w3.org/2000/svg" xmlns:xlink="http://www.w3.org/1999/xlink" width="428.616943359375" height="327.55517578125" viewBox="0 0 428.616943359375 327.55517578125" fill="none">
<circle cx="218.35440826416016" cy="72.93521881103516" r="72.93521881103516"   fill="url(#linear_0)" >
</circle>
<path d="M392.946 115.742C373.633 111.545 355.931 100.633 338.227 104.83C306.041 113.224 277.073 130.85 241.667 132.529C214.308 134.208 193.387 118.26 169.247 109.866C166.028 109.027 162.81 109.866 159.591 109.866C141.888 113.224 133.841 126.654 116.139 120.778C79.1235 108.187 66.2483 86.3638 27.6246 73.7733C17.2191 70.5177 8.01323 71.3206 0 74.0899L0 200.718C32.197 201.394 64.5112 201.785 96.826 199.678C141.888 196.321 169.125 195.556 209.358 184.644C230.279 178.769 254.542 166.943 278.682 162.746C314.088 157.71 344.665 147.637 380.07 144.28C396.044 142.965 412.453 142.806 428.616 143.781L428.616 125.962C416.848 122.208 405.171 118.684 392.946 115.742Z"   fill="url(#linear_1)" >
</path>
<path d="M428.616 131.958C409.671 130.236 390.438 130.517 371.716 132.839C330.217 138.767 294.377 156.548 252.878 165.438C224.584 172.847 194.403 155.066 169.881 165.438C122.723 184.701 92.5418 224.709 39.7254 230.637C26.9282 231.893 14.1303 232.637 1.33813 233.038L1.33813 318.555L428.616 318.555L428.616 131.958Z"   fill="url(#linear_2)" >
</path>
<path d="M157.981 179.473C133.841 173.983 106.482 171.237 82.3422 172.61C54.2753 173.496 27.5494 163.509 0 157.43L0 318.555L428.616 318.555L428.616 213.871C336.45 220.335 245.791 206.588 157.981 179.473Z"   fill="#5B97B8" >
</path>
<g opacity="0.1">
<path d="M428.616 285.223C329.663 281.906 231.422 272.255 135.45 239.161C116.139 231.115 96.826 219.849 91.9981 197.318C90.9936 189.284 91.8717 179.37 96.5832 172.268C91.7482 172.238 86.9848 172.346 82.3422 172.61C54.2753 173.496 27.5494 163.509 0 157.43L0 318.555L428.616 318.555L428.616 285.223Z"   fill="url(#linear_3)" >
</path>
</g>
<path d="M311.465 203.109C300.199 216.445 278.597 238.797 259.37 236.564C191.241 228.649 178.098 262.248 136.255 268.175C87.0523 275.069 42.5444 269.677 0 291.897L0 318.555L428.616 318.555L428.616 146.733C383.128 156.768 342.971 165.978 311.465 203.109Z"   fill="#4780BE" >
</path>
<g opacity="0.2">
<path d="M352.149 170.678C360.641 225.232 310.812 257.28 260.979 269.738C251.323 272.958 241.667 284.223 233.62 293.879C219.136 306.753 199.824 308.363 182.121 306.753C151.544 306.753 119.357 293.879 88.7794 303.535C79.4508 306.2 71.2288 311.629 63.9937 318.555L428.616 318.555L428.616 146.733C400.895 152.849 375.159 158.67 352.149 170.678Z"   fill="url(#linear_4)" >
</path>
</g>
<path d="M114.529 275.004C50.1551 253.493 50.1551 172.414 26.0153 121.12C19.9706 108.69 10.7719 94.9642 0 82.7825L0 325.196L205.031 325.196C205.097 324.179 205.14 323.146 205.125 322.105C189.119 309.985 167.226 314.485 149.934 304.788C137.06 296.515 127.404 278.314 114.529 275.004Z"   fill="#263541" >
</path>
<path d="M421.913 62.2709C407.429 83.7227 396.164 105.175 383.289 128.277C367.195 154.68 386.508 189.333 370.414 212.435C355.93 233.887 343.056 250.389 330.18 273.491C325.352 280.092 320.524 283.392 314.087 286.692C289.76 299.164 255.389 301.339 240.808 325.196L428.616 325.196L428.616 56.7026C426.049 57.9291 423.771 59.7307 421.913 62.2709Z"   fill="#263541" >
</path>
<path d="M199.444 317.998C199.536 318.497 199.521 319.313 199.438 319.813C199.228 321.092 199.095 322.403 198.704 323.628C198.278 324.963 197.821 326.327 197.166 327.555L213.486 327.555C213.432 326.146 213.307 324.737 213.193 323.328C212.987 320.764 212.496 318.223 212.16 315.667C212.081 315.063 212.105 314.071 212.275 313.487C212.884 311.383 212.407 309.231 211.086 307.885C207.884 304.62 209.868 300.932 209.659 297.439C209.599 296.417 209.939 295.377 210.023 294.339C210.581 287.424 211.159 280.515 209.999 273.591C209.216 268.915 209.995 264.387 211.705 259.999C211.746 259.895 211.81 259.798 211.834 259.69C212.171 258.133 212.435 256.666 213.648 255.337C214.621 254.271 214.964 252.577 215.43 251.111C216.291 248.41 217.037 245.672 217.791 243.083C218.13 245.32 218.697 247.721 218.786 250.14C218.841 251.669 218.127 253.217 217.881 254.777C217.815 255.19 218.084 255.934 218.406 256.084C219.861 256.761 220.466 257.694 220.873 259.374C221.752 263.007 223.43 266.441 224.39 270.06C225.026 272.456 225.242 275.038 225.185 277.525C225.095 281.426 224.184 285.343 224.415 289.206C224.675 293.559 225.812 297.859 226.571 302.182C226.835 303.684 227.146 305.181 227.345 306.693C227.385 306.997 227.091 307.45 226.82 307.675C225.583 308.702 225.724 310.314 227.093 311.214C227.329 311.37 227.481 312.157 227.321 312.335C225.202 314.68 224.676 318.038 225.993 320.932C226.178 321.338 226.153 321.873 226.115 322.34C225.989 323.888 225.961 325.464 225.621 326.969C225.576 327.165 225.521 327.359 225.472 327.555L246.634 327.555C246.27 325.582 245.507 323.77 244.345 322.557C243.86 322.053 243.304 321.482 242.672 321.279C241.026 320.749 240.978 319.709 241.149 318.227C241.308 316.854 241.121 315.398 240.826 314.035C240.643 313.188 239.664 312.473 239.591 311.651C239.456 310.111 239.587 308.514 239.846 306.981C240.589 302.581 241.466 298.203 242.26 293.811C242.829 290.663 243.383 287.512 243.882 284.353C244.495 280.467 243.837 276.66 242.6 273.021C241.083 268.56 241.552 264.024 241.597 259.494C241.6 259.166 242.379 258.879 242.734 258.512C243.098 258.135 243.631 257.702 243.666 257.26C243.922 253.972 243.886 250.651 244.298 247.385C245.093 241.069 246.337 234.805 246.979 228.477C247.412 224.213 247.12 219.876 247.191 215.573C247.199 215.085 247.609 214.591 247.576 214.118C247.484 212.846 247.256 211.583 247.078 210.317C247.031 209.985 246.925 209.656 246.924 209.325C246.909 205.76 246.895 202.194 246.944 198.63C246.947 198.441 247.552 198.059 247.806 198.112C248.703 198.296 249.181 198.198 249.313 197.123C249.479 195.766 249.795 194.415 250.191 193.106C250.284 192.797 250.995 192.422 251.349 192.485C253.539 192.875 254.111 192.245 254.417 189.734C254.505 189.016 254.718 188.284 255.026 187.629C255.75 186.086 255.31 185.094 253.683 184.553C253.278 184.419 252.744 183.937 252.7 183.563C252.366 180.739 252.151 177.901 251.877 175.07C251.744 173.705 251.559 172.345 251.402 170.983C251.356 170.582 251.167 170.102 251.316 169.789C251.943 168.477 251.091 167.586 250.69 166.483C250.404 165.695 250.84 164.597 251.089 163.672C251.431 162.397 252.04 161.707 253.133 163.15C253.156 163.179 253.183 163.211 253.216 163.225C255.736 164.326 258.224 165.514 260.801 166.46C261.402 166.68 262.499 166.29 263.029 165.808C264.213 164.731 265.224 163.449 266.211 162.177C266.505 161.797 266.614 161.115 266.517 160.645C266.126 158.739 266.701 157.236 267.856 155.656C269.723 153.104 269.25 151.175 267.069 148.722L266.966 148.425C267.07 147.057 267.002 145.691 266.718 144.462C266.365 142.941 265.604 141.58 264.51 140.471C264.194 140.152 263.544 139.736 262.901 139.282C262.242 138.204 261.582 137.127 260.926 136.046C260.799 135.836 260.653 135.569 260.676 135.346C261.091 131.43 259.961 127.743 258.621 124.206C257.687 121.738 255.979 119.563 254.622 117.253C254.495 117.034 254.412 116.79 254.308 116.558C254.556 116.518 254.802 116.469 255.051 116.441C255.199 116.425 255.35 116.442 255.499 116.444C259.627 116.502 258.966 117.066 259.549 112.927C260.028 109.527 259.428 105.968 259.206 102.486C259.185 102.147 258.455 101.575 258.06 101.58C253.505 101.639 248.951 101.77 244.398 101.929C244.131 101.938 243.882 101.94 243.649 101.919C243.415 101.245 243.133 100.584 242.781 99.9455C242.368 99.1952 241.645 98.5136 241.321 97.7214C241.112 97.2096 241.038 96.6736 240.961 96.1362C241.022 95.7167 240.937 95.3163 240.722 94.9493C240.663 94.7541 240.595 94.5596 240.5 94.3694C239.021 91.4134 235.855 90.893 232.78 90.3677C233.043 88.9458 233.338 87.4131 233.469 85.862C233.515 85.3204 232.759 84.7113 232.369 84.1342C232.247 83.9546 232.008 83.7764 232.012 83.6017C232.067 80.9631 232.306 78.3173 232.171 75.69C232.1 74.3086 231.405 72.9548 230.958 71.5997C230.796 71.1084 230.343 70.6406 230.362 70.1749C230.433 68.4044 228.941 67.7024 228.092 66.5552C226.845 64.8742 225.057 64.7428 223.289 64.5398C222.391 63.913 221.419 63.4061 220.338 63.1605C218.44 62.7282 216.795 63.4785 214.976 63.815C211.848 64.3943 209.557 67.3602 209.995 70.4638C209.648 71.0452 209.238 71.5918 208.727 72.0973C206.581 74.2184 206.716 77.0232 206.339 79.7073C206.106 81.3606 206.364 83.0786 205.101 84.6439C204.602 85.2615 205.431 86.9283 205.612 88.1237C205.754 89.0494 205.827 89.9844 205.932 90.9157C204.787 90.9569 203.643 91.0052 202.499 91.0329C202.331 91.0371 202.125 90.8596 201.997 90.9122C199.677 91.8649 197.323 92.755 195.085 93.8739C194.548 94.1422 194.114 95.1964 194.13 95.8779C194.173 97.6888 194.444 99.499 194.71 101.297C194.856 102.281 194.486 102.549 193.574 102.534C188.684 102.453 183.793 102.452 178.904 102.314C177.493 102.275 177.115 102.742 177.148 104.095C177.23 107.457 177.189 110.822 177.165 114.185C177.155 115.626 177.525 116.328 179.244 116.159C180.548 116.031 181.859 115.972 183.171 115.929C184.348 116.118 185.523 116.314 186.696 116.518C186.59 116.54 186.482 116.561 186.377 116.583C185.743 116.716 185.008 117.036 184.622 117.517C184.04 118.242 183.826 119.258 183.262 120.004C182.701 120.747 181.912 121.322 181.203 121.947C180.47 122.593 179.776 123.312 179.035 123.947C176.082 125.775 173.557 128.107 171.628 131.01C170.559 132.62 169.851 134.338 169.247 136.098C168.973 136.373 168.693 136.641 168.379 136.859C166.568 138.118 164.681 139.273 162.895 140.566C160.527 142.281 159.891 144.864 160.712 147.738C160.945 148.557 160.5 149.587 160.303 150.508C160.086 151.529 159.57 152.542 159.601 153.546C159.634 154.67 160.063 155.806 160.446 156.892C161.219 159.084 162.866 159.639 165.725 158.967C166.616 158.758 167.613 158.859 168.541 158.978C171.105 159.306 172.997 157.872 175.004 156.676C176.007 156.079 177.142 155.694 178.116 155.057C179.165 154.37 180.32 153.661 181.027 152.673C182.061 151.227 182.831 149.643 184.725 149.083C184.971 149.01 185.062 148.364 185.195 147.972C185.297 147.673 185.253 147.262 185.444 147.066C186.41 146.075 186.915 146.223 187.377 147.638C187.605 148.335 187.955 148.991 188.317 149.644C188.322 151.272 188.165 152.664 187.654 154.07C188.899 164.056 188.491 171.921 184.089 181.938C183.279 183.783 182.567 187.028 183.636 188.736C184.792 190.583 182.289 192.734 181.81 195.164C181.484 196.819 182.671 198.38 184.35 198.534C185.163 198.607 185.825 198.676 185.902 198.708C188.133 199.633 187.665 201.072 187.622 201.538C187.38 204.186 186.747 206.813 186.678 209.459C186.598 212.522 186.852 215.608 187.167 218.663C187.328 220.218 187.547 221.769 187.781 223.317C187.833 227.396 188.238 231.424 188.995 235.4C188.66 236.735 188.975 238.184 189.249 239.653C189.589 241.474 189.719 243.335 189.922 245.181C190.208 247.776 190.757 250.382 190.625 252.964C190.529 254.846 190.906 256.761 192.061 258.25C194.912 261.925 193.204 265.88 192.848 269.872C192.489 273.881 192.317 278.065 193.069 281.978C194.118 287.435 196.238 292.677 197.635 298.079C198.46 301.268 198.784 304.587 199.293 307.854C199.328 308.083 199.036 308.582 198.885 308.587C197.603 308.626 197.737 309.271 198.063 310.161C198.235 310.631 198.129 311.197 198.225 311.705C198.621 313.805 199.06 315.896 199.444 317.998Z"   fill="#263541" >
</path>
<path d="M116.332 274.689C117.548 274.832 118.76 275.013 119.979 275.107C120.415 275.141 120.91 275.263 121.32 274.88C121.404 274.802 121.759 274.853 121.841 274.959C122.183 275.404 122.65 275.405 123.114 275.373C123.348 275.357 123.573 275.207 123.802 275.118C123.651 274.912 123.543 274.628 123.341 274.516C122.711 274.169 122.06 273.852 121.39 273.592C120.774 273.354 120.077 273.294 119.499 272.995C118.608 272.534 117.796 271.923 116.936 271.4C116.293 271.01 115.624 270.666 114.977 270.283C114.84 270.203 114.744 270.048 114.642 269.917C114.497 269.732 114.407 269.459 114.22 269.358C113.159 268.791 112.076 268.262 111 267.72C110.869 267.654 110.741 267.582 110.603 267.509C110.669 267.394 110.687 267.34 110.723 267.304C111.284 266.76 111.279 266.481 110.586 266.153C109.924 265.84 109.231 265.556 108.521 265.392C107.78 265.22 107.002 265.21 106.074 265.111C106.268 264.735 106.399 264.422 106.581 264.142C106.867 263.7 106.838 263.554 106.369 263.304C105.494 262.84 104.566 262.694 103.593 262.832C103.15 262.894 102.917 262.802 103.056 262.296C103.188 261.817 103.022 261.51 102.539 261.335C102.015 261.144 101.511 260.899 100.87 260.623C101.19 260.6 101.391 260.638 101.539 260.566C101.844 260.415 102.261 260.269 102.377 260.008C102.575 259.561 102.859 259.517 103.226 259.583C104.447 259.803 105.734 259.648 106.857 260.418C107.366 260.767 107.803 260.419 107.841 259.787C107.872 259.29 108.08 259.09 108.574 259.21C109.217 259.366 109.832 259.659 110.48 259.778C111.046 259.882 111.646 259.866 112.224 259.816C112.395 259.802 112.617 259.517 112.683 259.312C112.882 258.701 112.966 258.642 113.608 258.736C114.247 258.829 114.891 258.895 115.534 258.934C116.011 258.964 116.202 258.671 116.203 258.216C116.205 257.443 116.31 257.378 117.092 257.447C117.916 257.52 118.743 257.566 119.57 257.583C120.223 257.596 120.48 257.25 120.322 256.654C120.203 256.209 120.388 255.925 120.861 255.863C121.074 255.836 121.296 255.877 121.507 255.844C122.248 255.726 122.994 255.62 123.721 255.44C123.901 255.395 124.117 255.1 124.143 254.897C124.255 254.035 124.314 253.982 125.151 253.962C125.555 253.952 125.982 253.879 126.35 253.722C126.602 253.616 126.904 253.339 126.949 253.096C127.062 252.479 127.432 252.267 127.972 252.154C128.376 252.07 128.787 251.97 129.161 251.802C129.475 251.661 129.802 251.459 130.011 251.195C130.26 250.88 130.488 250.644 130.913 250.6C131.173 250.573 131.426 250.441 131.674 250.336C132.434 250.012 133.179 249.649 133.952 249.357C134.739 249.059 135.556 248.84 136.348 248.553C136.496 248.5 136.587 248.288 136.704 248.15C136.541 248.027 136.39 247.823 136.212 247.794C135.541 247.687 134.863 247.629 134.185 247.567C132.805 247.442 131.424 247.335 130.045 247.205C128.884 247.096 127.727 246.951 126.565 246.853C126.218 246.824 126.022 246.689 125.834 246.404C125.704 246.207 125.443 245.985 125.231 245.975C124.446 245.938 123.655 245.974 122.867 246.002C122.368 246.019 121.996 245.921 121.85 245.351C121.801 245.162 121.556 244.967 121.355 244.884C120.552 244.551 119.745 244.653 118.923 244.886C118.075 245.128 117.695 244.779 117.741 243.897C117.78 243.169 117.534 242.917 116.81 243.088C116.024 243.274 115.257 243.543 114.491 243.803C113.816 244.032 113.486 243.836 113.476 243.116C113.471 242.689 113.283 242.474 112.874 242.447C112.606 242.429 112.316 242.375 112.071 242.45C111.32 242.679 110.572 242.933 109.847 243.235C109.045 243.57 108.563 243.302 108.543 242.445C108.527 241.745 108.393 241.633 107.702 241.717C106.621 241.848 105.787 242.512 104.892 243.032C104.256 243.401 103.897 243.293 103.762 242.599C103.596 241.745 103.422 241.622 102.551 241.783C102.287 241.832 102.027 241.911 101.769 241.987C100.911 242.24 100.137 242.635 99.4576 243.232C99.3149 243.358 98.8755 243.397 98.8094 243.305C98.6802 243.127 98.6412 242.802 98.7107 242.585C98.7789 242.371 99.0125 242.196 99.2027 242.038C99.3951 241.879 99.623 241.762 99.8345 241.625C100.385 241.271 100.451 240.961 100.094 240.425C99.7387 239.891 99.8494 239.573 100.455 239.371C100.879 239.229 101.316 239.11 101.722 238.927C102.152 238.733 102.317 238.351 102.208 237.895C101.985 236.958 101.985 236.941 102.893 236.533C103.677 236.18 103.987 235.605 103.747 234.795C103.598 234.288 103.725 233.988 104.173 233.724C104.841 233.332 105.213 232.47 105.02 231.719C104.901 231.253 105.051 230.983 105.395 230.7C106.157 230.073 106.529 229.253 106.373 228.263C106.295 227.775 106.415 227.386 106.695 227.004C107.36 226.094 107.909 225.133 108.011 223.973C108.029 223.765 108.113 223.549 108.217 223.364C108.833 222.268 109.468 221.182 110.086 220.086C110.225 219.838 110.369 219.576 110.427 219.303C110.505 218.929 110.249 218.758 109.906 218.924C109.779 218.986 109.659 219.078 109.561 219.181C108.098 220.698 106.278 221.667 104.396 222.536C104.194 222.629 103.939 222.6 103.717 222.66C103.292 222.773 102.857 222.874 102.455 223.045C101.899 223.282 101.374 223.792 100.826 223.806C99.7869 223.834 98.9514 224.209 98.1258 224.748C97.9476 224.865 97.6559 224.966 97.4791 224.902C96.4533 224.527 95.7108 225.006 94.9767 225.619C94.8007 225.766 94.504 225.915 94.308 225.87C93.1814 225.609 92.4836 226.247 91.8788 227.009C91.5551 227.418 91.2427 227.574 90.777 227.354C90.3199 227.138 89.8655 227.196 89.4985 227.48C89.1386 227.758 88.8234 228.118 88.5608 228.492C88.3258 228.828 88.0972 229.015 87.6727 228.903C87.1623 228.77 86.7321 228.984 86.4133 229.348C86.1088 229.695 85.8909 230.116 85.6147 230.491C85.482 230.672 85.3251 230.927 85.1426 230.963C84.2091 231.143 83.6725 231.884 82.9704 232.392C82.7383 232.561 82.291 232.79 82.181 232.7C81.8196 232.404 81.1786 232.265 81.3454 231.538C81.4796 230.953 81.3369 230.427 80.7577 230.104C80.341 229.87 80.2188 229.544 80.3438 229.059C80.4865 228.505 80.4453 227.934 80.0371 227.48C79.4458 226.82 79.4429 226.496 80.1571 225.937C80.8173 225.421 81.5215 224.959 82.1902 224.453C82.3478 224.334 82.5537 224.116 82.5338 223.972C82.5139 223.825 82.2577 223.638 82.0773 223.6C81.2524 223.427 80.4205 223.214 79.5856 223.184C78.9261 223.162 78.3398 223.032 77.7932 222.708C77.3275 222.433 76.9377 222.507 76.4288 222.677C75.6649 222.93 74.7534 223.216 74.0428 223.01C73.4479 222.838 72.8743 222.347 72.1928 222.198C72.1609 222.191 72.1332 222.159 72.1062 222.135C71.6966 221.783 71.2849 221.8 70.8071 222.034C70.5786 222.147 70.2186 222.18 69.9965 222.078C69.6032 221.897 69.2844 222.017 68.9103 222.08C68.5469 222.139 68.1387 222.057 67.7759 221.951C67.5168 221.875 67.4458 221.617 67.6609 221.387C67.9676 221.06 68.2956 220.753 68.6015 220.425C68.8805 220.127 69.3107 219.844 69.3753 219.498C69.4931 218.868 69.8573 218.435 70.1874 217.949C70.46 217.549 70.6581 217.094 70.9576 216.718C71.4893 216.05 72.0033 215.317 73.005 215.332C73.3031 215.337 73.4124 215.217 73.4053 214.906C73.4018 214.737 73.5338 214.561 73.619 214.396C73.7042 214.232 73.9228 214.007 73.8774 213.931C73.7816 213.769 73.5651 213.626 73.3741 213.585C72.983 213.501 72.5755 213.487 72.1609 213.443C72.4754 213.144 72.7948 212.9 73.0376 212.595C73.5906 211.899 73.4976 211.341 72.7132 210.817C72.8907 210.705 73.0681 210.635 73.1888 210.51C73.8831 209.791 74.6413 209.117 75.2283 208.317C75.9269 207.368 75.8459 207.083 75.0842 206.194C75.2092 206.071 75.3206 205.923 75.4661 205.826C76.5076 205.131 77.0549 204.078 77.5333 202.98C77.9642 201.991 77.8478 201.688 76.9179 201.186C76.8951 201.174 76.893 201.124 76.8739 201.071C77.9628 200.078 78.4676 198.702 79.1661 197.45C79.4216 196.993 79.509 196.491 78.929 196.124C78.8544 196.077 78.8694 195.786 78.9304 195.646C79.1363 195.169 79.4074 194.722 79.6062 194.244C79.959 193.396 80.2437 192.519 80.6143 191.68C81.4853 189.709 82.3996 187.756 83.2657 185.783C83.3466 185.599 83.2146 185.32 83.1812 185.086C82.9697 185.135 82.6949 185.117 82.5586 185.245C81.9851 185.788 81.4221 186.349 80.9117 186.952C79.9697 188.064 79.1093 189.248 78.1367 190.333C77.0385 191.558 75.8537 192.707 74.676 193.92C74.2792 193.484 73.8987 193.842 73.5502 194.205C72.8083 194.976 72.0864 195.765 71.4439 196.452C71.0584 196.304 70.7014 196.178 70.3564 196.025C70.2818 195.991 70.2265 195.866 70.203 195.772C70.0809 195.288 70.2832 194.892 70.5743 194.53C70.9285 194.09 71.0954 193.6 70.8249 193.077C70.6183 192.679 70.6928 192.373 70.9257 192.029C71.3665 191.379 71.6469 190.675 71.6988 189.869C71.7286 189.401 71.8656 188.928 72.0196 188.48C72.2653 187.767 72.5883 187.08 72.8339 186.367C72.9709 185.968 72.7671 185.792 72.359 185.903C72.239 185.935 72.1155 185.984 72.0154 186.055C70.756 186.95 69.5024 187.853 68.2423 188.747C67.9974 188.92 67.7496 189.123 67.4707 189.211C66.1638 189.629 65.1678 190.42 64.4217 191.566C64.2797 191.783 63.9851 192.035 63.7572 192.039C62.6228 192.057 62.0173 192.783 61.4735 193.615C60.8637 194.549 60.5897 194.871 59.6832 195.422C58.9328 195.879 58.7248 196.659 58.4458 197.388C58.2662 197.856 58.0156 198.158 57.506 198.232C56.9636 198.311 56.5838 198.619 56.3737 199.126C56.1884 199.575 56.0294 200.036 55.8264 200.476C55.7334 200.679 55.5651 200.846 55.4309 201.03L55.2052 200.892C55.6723 199.884 56.0897 198.848 56.6229 197.876C57.0126 197.167 57.4506 196.467 57.3008 195.656C57.1815 195.014 57.3952 194.566 57.6877 194.05C58.1974 193.151 58.5346 192.194 58.4288 191.117C58.3926 190.75 58.4735 190.351 58.5857 189.992C58.8313 189.203 59.1863 188.446 59.3907 187.649C59.5767 186.926 59.1387 186.575 58.4515 186.795C58.2457 186.861 58.0313 186.901 57.748 186.97C57.7956 186.778 57.8077 186.691 57.8389 186.612C58.1441 185.828 58.5232 185.078 58.4891 184.187C58.4501 183.156 58.1342 182.821 57.1368 182.937C56.7897 182.977 56.6583 182.871 56.7804 182.51C56.9302 182.07 57.0793 181.626 57.1858 181.174C57.4839 179.91 57.1134 179.502 55.8405 179.662C55.3521 179.723 55.191 179.591 55.3408 179.146C55.6744 178.161 55.7135 177.199 55.4451 176.182C55.306 175.652 55.1541 175.336 54.562 175.319C54.4179 175.316 54.1553 175.09 54.1567 174.968C54.1681 173.702 53.6718 172.591 53.2005 171.456C52.7958 170.482 52.5275 169.452 52.1747 168.456C51.9163 167.727 51.6515 166.997 51.3264 166.297C51.0857 165.777 50.5114 165.637 50.1756 165.968C49.7824 166.356 49.558 166.801 49.5467 167.401C49.5275 168.458 49.4416 169.52 49.2975 170.568C49.1456 171.681 48.6231 172.743 48.8666 173.915C48.8865 174.008 48.6288 174.174 48.484 174.283C48.2575 174.454 47.9281 174.553 47.7968 174.775C47.1295 175.899 46.8626 177.104 47.2331 178.402C47.2786 178.561 47.2601 178.738 47.2814 179.07C47.0188 178.885 46.891 178.78 46.7504 178.699C46.4551 178.527 46.0228 178.157 45.8787 178.246C45.5514 178.447 45.2448 178.844 45.1432 179.22C44.9047 180.1 44.9253 180.999 45.3143 181.865C45.3988 182.054 45.369 182.296 45.3917 182.513C45.1943 182.435 44.992 182.366 44.8011 182.276C44.6882 182.222 44.5952 182.13 44.488 182.063C43.9187 181.707 43.6425 181.767 43.2911 182.342C43.135 182.599 43.0072 182.872 42.856 183.158C42.5919 183.037 42.3761 182.889 42.1404 182.839C41.4007 182.685 41.0252 182.271 40.9939 181.498C40.9662 180.81 40.5652 180.389 39.9014 180.189C39.7105 180.132 39.5117 180.003 39.3846 179.851C38.8707 179.23 38.383 178.588 37.8853 177.954L28.4615 266.708C57.7239 269.814 86.9855 272.921 116.247 276.029C115.888 275.56 115.529 275.091 115.121 274.56C115.559 274.606 115.946 274.644 116.332 274.689Z"   fill="#263541" >
</path>
<path d="M395.633 82.8613C395.63 82.8819 395.59 82.8975 395.554 82.9273C394.452 82.4006 393.208 82.4212 392.01 82.2615C391.572 82.2032 391.146 82.2827 391.016 82.8237C390.999 82.8932 390.763 82.9664 390.633 82.9614C390.194 82.9451 389.76 82.872 389.321 82.862C388.543 82.8443 387.761 82.8847 386.985 82.8506C385.163 82.7704 383.343 82.6526 381.52 82.5766C381.35 82.5688 381.164 82.7491 380.986 82.8422C381.086 82.9855 381.148 83.1971 381.289 83.2617C381.886 83.5336 382.494 83.792 383.12 83.9993C384.276 84.3819 385.466 84.6822 386.608 85.096C387.899 85.5631 389.153 86.1161 390.455 86.6457C390.219 87.0695 390.612 87.2505 391.001 87.4067C391.827 87.7375 392.663 88.0499 393.394 88.331C393.384 88.6625 393.385 88.9663 393.359 89.2688C393.354 89.3348 393.269 89.4122 393.201 89.4569C392.848 89.689 392.475 89.6521 392.103 89.5392C391.651 89.4015 391.211 89.4193 390.87 89.7728C390.609 90.0432 390.344 90.0766 390.003 90.0014C389.359 89.8601 388.716 89.8544 388.057 90.0489C387.674 90.1625 387.257 90.1973 386.855 90.2115C386.215 90.235 385.575 90.1924 384.935 90.2158C384.577 90.2285 384.494 90.4315 384.698 90.7049C384.758 90.7858 384.832 90.8639 384.917 90.9185C385.989 91.6015 387.066 92.278 388.136 92.9616C388.345 93.0951 388.576 93.2221 388.726 93.4046C389.43 94.2621 390.343 94.7782 391.471 95.0039C391.685 95.0473 391.969 95.1949 392.037 95.3646C392.371 96.2086 393.124 96.4507 393.943 96.6161C394.862 96.8021 395.197 96.9143 395.894 97.4332C396.472 97.862 397.154 97.7917 397.816 97.7888C398.241 97.7874 398.553 97.8875 398.757 98.2474C398.973 98.6308 399.327 98.8253 399.792 98.8352C400.203 98.8445 400.617 98.8296 401.026 98.8537C401.214 98.8643 401.396 98.9417 401.581 98.9893L401.534 99.198C400.596 99.1405 399.65 99.1291 398.722 99.0113C398.045 98.9261 397.361 98.8004 396.755 99.1483C396.274 99.4237 395.855 99.3932 395.361 99.3236C394.498 99.203 393.637 99.2285 392.806 99.6197C392.522 99.7531 392.18 99.8085 391.862 99.8291C391.162 99.8738 390.455 99.8277 389.76 99.9058C389.129 99.976 388.972 100.405 389.342 100.856C389.453 100.991 389.546 101.14 389.682 101.332C389.514 101.352 389.442 101.368 389.369 101.368C388.656 101.367 387.949 101.301 387.246 101.584C386.432 101.913 386.253 102.246 386.628 102.959C386.758 103.207 386.711 103.337 386.388 103.349C385.993 103.365 385.596 103.383 385.205 103.434C384.109 103.577 383.887 103.973 384.375 104.879C384.562 105.227 384.502 105.386 384.105 105.402C383.222 105.439 382.441 105.689 381.704 106.184C381.32 106.442 381.11 106.648 381.264 107.095C381.301 107.204 381.195 107.466 381.097 107.501C380.081 107.859 379.333 108.553 378.558 109.235C377.894 109.82 377.146 110.319 376.449 110.873C375.94 111.277 375.43 111.687 374.962 112.134C374.614 112.464 374.664 112.935 375.024 113.09C375.445 113.272 375.865 113.311 376.348 113.145C377.2 112.853 378.073 112.61 378.952 112.413C379.884 112.205 380.881 112.288 381.75 111.765C381.82 111.724 382.024 111.868 382.152 111.945C382.353 112.065 382.526 112.283 382.74 112.317C383.828 112.49 384.867 112.341 385.801 111.687C385.914 111.607 386.061 111.57 386.321 111.457C386.247 111.708 386.2 111.833 386.174 111.962C386.12 112.234 385.946 112.664 386.058 112.746C386.312 112.933 386.716 113.047 387.045 113.015C387.816 112.937 388.53 112.661 389.112 112.119C389.24 112.001 389.441 111.953 389.608 111.874C389.602 112.044 389.604 112.215 389.586 112.384C389.575 112.484 389.527 112.58 389.504 112.679C389.381 113.209 389.506 113.399 390.066 113.495C390.315 113.538 390.57 113.553 390.841 113.584C390.819 113.817 390.761 114.021 390.789 114.212C390.873 114.811 390.65 115.212 390.04 115.459C389.497 115.679 389.274 116.102 389.302 116.656C389.31 116.816 389.263 117.002 389.177 117.142C388.826 117.706 388.451 118.257 388.084 118.814C401.595 115.386 415.105 111.958 428.616 108.531L428.617 34.2878C428.293 34.5065 427.127 34.4497 426.944 34.1139C426.862 33.9627 426.831 33.7845 426.746 33.6369C426.442 33.1158 426.146 32.5884 425.797 32.0964C425.711 31.9743 425.413 31.8984 425.244 31.9374C424.522 32.1035 424.464 32.0751 424.211 31.454C424.088 31.1544 423.909 30.857 423.68 30.6263C423.524 30.4694 423.217 30.3231 423.009 30.36C422.485 30.4537 422.211 30.2379 421.968 29.8674C421.786 29.5891 421.59 29.3108 421.35 29.0794C421.149 28.8856 420.895 28.6989 420.625 28.6187C420.302 28.5236 420.048 28.422 419.894 28.1161C419.799 27.9294 419.621 27.7789 419.467 27.6241C418.994 27.1485 418.492 26.6956 418.041 26.2029C417.579 25.6996 417.173 25.1516 416.721 24.6412C416.636 24.5468 416.441 24.5396 416.297 24.4928C416.245 24.6504 416.124 24.8222 416.152 24.9642C416.255 25.4973 416.401 26.0219 416.543 26.5465C416.833 27.6156 417.138 28.6812 417.424 29.7509C417.665 30.6511 417.875 31.5598 418.126 32.4578C418.201 32.7254 418.148 32.9121 417.973 33.135C417.852 33.2891 417.748 33.5489 417.8 33.7107C417.993 34.3099 418.245 34.8905 418.49 35.4727C418.645 35.8404 418.672 36.1478 418.257 36.4225C418.119 36.5134 418.032 36.754 418.023 36.9286C417.983 37.6265 418.293 38.2001 418.712 38.7481C419.145 39.3124 418.974 39.6979 418.255 39.9194C417.662 40.1018 417.53 40.3588 417.871 40.8508C418.242 41.3853 418.674 41.8816 419.099 42.3792C419.473 42.8186 419.409 43.1217 418.836 43.3383C418.496 43.466 418.376 43.669 418.47 43.9828C418.532 44.1887 418.571 44.4215 418.7 44.5834C419.096 45.0789 419.51 45.5652 419.957 46.0195C420.452 46.5235 420.373 46.9615 419.694 47.2249C419.138 47.44 419.087 47.5734 419.348 48.0661C419.76 48.837 420.526 49.2686 421.195 49.7883C421.67 50.1567 421.685 50.4563 421.168 50.7587C420.531 51.1307 420.483 51.2968 420.858 51.9016C420.971 52.0855 421.108 52.2573 421.242 52.4284C421.686 52.997 422.221 53.462 422.891 53.797C423.031 53.8673 423.187 54.1853 423.132 54.2613C423.026 54.4097 422.778 54.5332 422.584 54.5438C422.394 54.5552 422.187 54.4309 422.008 54.3344C421.826 54.2365 421.668 54.1001 421.499 53.9809C421.06 53.6721 420.794 53.7118 420.466 54.1349C420.139 54.5559 419.854 54.5651 419.521 54.1704C419.287 53.8936 419.069 53.6018 418.808 53.3505C418.531 53.0857 418.179 53.0722 417.845 53.2859C417.159 53.7246 417.146 53.7303 416.562 53.1688C416.059 52.6839 415.51 52.6186 414.93 53.0332C414.567 53.2923 414.291 53.2838 413.954 53.0247C413.451 52.6385 412.656 52.6108 412.11 52.9721C411.771 53.1965 411.513 53.1624 411.19 52.987C410.473 52.5995 409.712 52.5576 408.964 52.9622C408.596 53.1617 408.252 53.1844 407.866 53.0864C406.951 52.8522 406.027 52.7201 405.07 52.9799C404.899 53.0268 404.702 53.0261 404.525 53.0027C403.474 52.8593 402.426 52.6988 401.375 52.5547C401.138 52.5214 400.887 52.4901 400.652 52.5263C400.331 52.576 400.267 52.8174 400.497 53.0254C400.582 53.1028 400.69 53.166 400.799 53.2099C402.426 53.8645 403.715 54.9456 404.942 56.102C405.074 56.227 405.123 56.4258 405.234 56.5748C405.445 56.8602 405.648 57.1562 405.898 57.4075C406.245 57.7554 406.801 58.0003 406.967 58.4063C407.283 59.1759 407.819 59.6927 408.484 60.1541C408.628 60.2534 408.791 60.443 408.79 60.5935C408.78 61.4702 409.372 61.8869 410.07 62.2589C410.238 62.3484 410.441 62.5266 410.46 62.687C410.57 63.6056 411.278 63.9428 412.058 64.1742C412.475 64.2984 412.689 64.4865 412.645 64.899C412.602 65.3036 412.776 65.6273 413.107 65.8197C413.432 66.0085 413.808 66.1399 414.182 66.2279C414.517 66.3067 414.731 66.4238 414.762 66.7738C414.799 67.1941 415.091 67.4546 415.472 67.5873C415.837 67.7144 416.236 67.7556 416.613 67.8535C416.795 67.9004 417.043 67.9437 417.123 68.0701C417.531 68.7161 418.276 68.9028 418.881 69.2811C419.081 69.4061 419.391 69.6744 419.35 69.783C419.215 70.1394 419.285 70.6597 418.656 70.7456C418.152 70.8145 417.771 71.0736 417.675 71.601C417.607 71.9808 417.38 72.1668 416.958 72.2137C416.474 72.2676 416.029 72.4643 415.781 72.9016C415.42 73.5355 415.162 73.6313 414.513 73.2593C413.914 72.9143 413.346 72.5218 412.752 72.1675C412.612 72.0845 412.38 71.9929 412.269 72.0497C412.158 72.1072 412.081 72.3535 412.101 72.4991C412.196 73.1671 412.26 73.8514 412.473 74.4853C412.641 74.9851 412.703 75.4614 412.599 75.9647C412.51 76.3928 412.68 76.6633 412.959 76.9948C413.378 77.4931 413.864 78.093 413.9 78.6843C413.931 79.1791 413.7 79.7513 413.774 80.3043C413.777 80.3305 413.759 80.3604 413.747 80.3874C413.582 80.7962 413.712 81.0994 414.034 81.389C414.189 81.5281 414.317 81.7879 414.298 81.9832C414.264 82.3303 414.452 82.5334 414.606 82.796C414.758 83.0501 414.807 83.3795 414.824 83.6826C414.836 83.8985 414.65 84.0262 414.406 83.9318C414.058 83.7969 413.719 83.6408 413.371 83.5066C413.053 83.3845 412.705 83.1445 412.41 83.1964C411.873 83.2908 411.423 83.1439 410.942 83.0374C410.545 82.95 410.125 82.933 409.739 82.818C409.055 82.6136 408.325 82.4418 408.053 81.6878C407.972 81.4629 407.845 81.416 407.599 81.5111C407.465 81.5629 407.287 81.5154 407.131 81.499C406.975 81.4834 406.734 81.3847 406.685 81.4408C406.583 81.5594 406.531 81.7631 406.551 81.9179C406.594 82.2352 406.699 82.544 406.781 82.867C406.453 82.7186 406.167 82.5504 405.855 82.4574C405.142 82.2444 404.722 82.4758 404.525 83.2155C404.385 83.1147 404.278 83.0026 404.144 82.9479C403.373 82.637 402.619 82.2657 401.814 82.0577C400.857 81.8099 400.652 81.9534 400.157 82.7818C400.023 82.7236 399.873 82.6831 399.754 82.6022C398.904 82.0243 397.907 81.92 396.894 81.8802C395.98 81.8447 395.772 82.0194 395.633 82.8613Z"   fill="#263541" >
</path>
<path d="M349.46 18.573C349.297 18.3416 349.279 18.0378 349.413 17.7886L354.478 8.41452C354.873 7.68405 353.958 6.95288 353.333 7.49878L343.222 16.3192C342.969 16.5399 342.599 16.5641 342.319 16.3788L330.379 8.44434C329.692 7.98789 328.882 8.82059 329.357 9.49427L339.932 24.4957C340.178 24.8442 340.665 24.9159 341 24.6532L343.934 22.3575C344.499 21.9152 345.222 21.7264 345.931 21.8357L350.739 22.579C351.389 22.6791 351.841 21.95 351.462 21.4126L349.46 18.573Z"   fill="#263541" >
</path>
<path d="M289.369 49.2644C289.168 49.4965 288.84 49.5718 288.559 49.4497L278 44.8751C277.8 44.7879 277.57 44.7992 277.379 44.9057L269.473 49.3113C268.804 49.6839 269.13 50.7055 269.891 50.6217L277.878 49.74C278.042 49.7223 278.206 49.762 278.343 49.8536L289.316 57.1406C289.643 57.3586 290.086 57.2641 290.297 56.9312L296.236 47.5323C296.382 47.3016 296.648 47.1766 296.919 47.2114L300.866 47.719C301.594 47.8127 301.959 46.8657 301.356 46.4469L295.902 42.6589C295.607 42.4537 295.205 42.5048 294.971 42.7767L289.369 49.2644Z"   fill="#263541" >
</path>
<path d="M336.926 63.0505C337.14 63.1925 337.428 63.1307 337.565 62.9142L341.43 56.7985C341.524 56.648 341.698 56.5671 341.874 56.5898L344.442 56.9199C344.917 56.9809 345.154 56.3647 344.761 56.0921L341.212 53.6267C341.02 53.494 340.759 53.5266 340.606 53.7041L336.961 57.9258C336.831 58.077 336.617 58.1253 336.434 58.0458L329.563 55.0692C329.433 55.0124 329.283 55.0202 329.159 55.0891L324.014 57.9563C323.579 58.1984 323.791 58.8636 324.287 58.8089L329.484 58.2353C329.59 58.2232 329.697 58.2495 329.786 58.3084L336.926 63.0505Z"   fill="#263541" >
</path>
<defs>
<linearGradient id="linear_0" x1="50.00016192510207%" y1="100.0003000082747%" x2="51.00016192510207%" y2="4.4137470644389377e-7%" gradientUnits="objectBoundingBox">
<stop offset="0" stop-color="#FFFFFF" stop-opacity="0" />
<stop offset="0.9947919845581055" stop-color="#FFFFFF"  />
</linearGradient>
<linearGradient id="linear_1" x1="50.00005042126251%" y1="30.734925367930295%" x2="51.00005042126251%" y2="58.16598747788294%" gradientUnits="objectBoundingBox">
<stop offset="0" stop-color="#59979E"  />
<stop offset="1" stop-color="#7BBBB2"  />
</linearGradient>
<linearGradient id="linear_2" x1="47.60394985333721%" y1="10.296372552908554%" x2="50.61716077290244%" y2="60.59617310738121%" gradientUnits="objectBoundingBox">
<stop offset="0" stop-color="#59979E"  />
<stop offset="1" stop-color="#7BBBB2"  />
</linearGradient>
<linearGradient id="linear_3" x1="0.0000067665564931727864%" y1="50.00008132857472%" x2="100.00010084252501%" y2="50.00008132857472%" gradientUnits="objectBoundingBox">
<stop offset="0" stop-color="#000000" stop-opacity="0" />
<stop offset="1" stop-color="#000000"  />
</linearGradient>
<linearGradient id="linear_4" x1="47.8285656621217%" y1="45.822619704782426%" x2="95.05555883089511%" y2="136.67617707762747%" gradientUnits="objectBoundingBox">
<stop offset="0" stop-color="#000000" stop-opacity="0" />
<stop offset="1" stop-color="#000000"  />
</linearGradient>
</defs>
</svg>
