<svg xmlns="http://www.w3.org/2000/svg" xmlns:xlink="http://www.w3.org/1999/xlink" width="72" height="72" viewBox="0 0 72 72" fill="none">
<path d="M31.8078 50.9172C39.3771 50.5533 45.4907 45.7497 45.4907 40.655C45.4179 35.6331 39.3043 32.4307 31.8078 32.7947C24.2385 33.1586 18.1249 37.2343 18.1249 42.329C18.1249 47.4237 24.2385 51.2811 31.8078 50.9172ZM36.9025 45.6768C39.2315 42.6201 37.8486 35.2691 30.2066 36.2153C22.6373 37.0887 23.5107 44.294 23.5107 44.294C23.5107 44.294 23.4379 46.5503 25.5486 47.7148C29.9883 50.1893 34.5735 48.7337 36.9025 45.6769L36.9025 45.6768Z" fill-rule="evenodd"  fill="#EA5D5C" >
</path>
<path d="M31.5565 42.2282C31.7749 42.6649 32.4299 42.7377 32.8666 42.3737C33.3033 42.0098 33.5216 41.3548 33.2305 40.9182C33.0122 40.4814 32.4299 40.4087 31.8477 40.7725L31.8476 40.7725C31.3382 41.1364 31.2654 41.7915 31.5565 42.2282ZM30.9744 43.8295C30.9744 45.0668 29.8098 46.1585 28.427 46.3041C27.0442 46.4496 25.8796 45.5762 25.8796 44.4118C25.8796 43.1745 26.8258 41.9372 28.2814 41.7917C29.8826 41.646 30.9744 42.5922 30.9744 43.8295Z" fill-rule="evenodd"  fill="#EA5D5C" >
</path>
<path d="M36 72C55.8982 72 72 55.8982 72 36C72 16.1018 55.8982 0 36 0C16.1018 0 0 16.1018 0 36C0 55.8982 16.1018 72 36 72ZM54.5237 35.4763C53.6073 35.4763 52.8873 34.2981 52.8873 33.3818C52.8873 32.5963 53.2146 31.8109 53.2146 31.8109C53.2206 31.7808 53.2327 31.7359 53.2486 31.6766C53.4061 31.0907 53.9393 29.1066 52.6909 26.3127C50.2037 22.0581 45.2291 22.0581 44.64 22.2545C44.0509 22.5163 43.1346 22.6472 43.1346 22.6472C42.2182 22.6472 41.4982 21.9272 41.4982 21.0109C41.4982 20.2254 42.0218 19.6363 42.6764 19.4399C42.6764 19.4399 42.6764 19.5054 42.7418 19.5054C42.8073 19.5054 42.8727 19.5709 42.8727 19.5709C43.5928 19.4399 46.08 19.2436 48.4364 19.8327C52.8218 20.8799 58.7128 25.7236 56.0946 34.6909C55.9441 35.6939 55.5247 35.621 55.013 35.5321C54.8568 35.5049 54.692 35.4763 54.5237 35.4763ZM18.3273 33.5782C18.3273 33.5782 23.3019 26.5746 29.0619 24.5455C34.8873 22.5819 35.5419 25.9201 35.5419 27.9492C35.4985 28.1745 35.4517 28.3873 35.4082 28.5852C35.123 29.8823 34.977 30.5461 36.851 29.9783C36.851 29.9783 42.5455 27.2946 44.9019 29.651C46.8001 31.5492 45.2291 34.2328 45.2291 34.2328C45.2291 34.2328 44.4437 35.0837 46.08 35.411C47.5855 35.6728 52.691 38.0292 49.8764 44.051C47.0619 50.0728 37.8327 53.0182 31.0255 52.4946C24.5455 51.971 16.1673 49.811 15.3164 41.8255C15.3164 41.8255 14.8582 38.2255 18.3273 33.5782ZM48.1853 31.4071C48.2876 30.759 48.9788 26.3809 44.2472 27.4255C43.6581 27.4255 43.1345 26.9019 43.1345 26.3128C43.1345 25.6583 43.6581 25.2001 44.2472 25.2001C44.2472 25.2001 51.2509 23.891 50.4 31.4837L50.4 31.6146C50.3345 32.1383 49.8763 32.5964 49.2872 32.5964C48.6327 32.5964 48.1745 32.0728 48.1745 31.4837C48.1745 31.4757 48.1787 31.4493 48.1853 31.4071Z" fill-rule="evenodd"  fill="#EA5D5C" >
</path>
</svg>
