<svg xmlns="http://www.w3.org/2000/svg" xmlns:xlink="http://www.w3.org/1999/xlink" width="72" height="72" viewBox="0 0 72 72" fill="none">
<path d="M12.887 49.0957C12.887 49.0957 12.5739 48.574 12.3652 47.7392C12.2609 47.3218 12.1565 46.9044 12.1044 46.487C12.0522 46.174 12.0522 45.861 12.1044 45.6001C12.0522 45.0783 12.1044 44.5044 12.2087 43.9305C12.5218 42.4696 13.0957 40.8523 14.7131 39.3392C18.1565 35.9479 22.8 35.7914 25.2 35.7914C28.7479 35.8435 34.9044 37.3566 40.1218 39.2349C41.5826 36.1566 42.5218 32.9218 43.0957 30.6783L21.4435 30.6783L21.4435 28.3305L32.5565 28.3305L32.5565 23.6348L19.1479 23.6348L19.1479 21.2348L32.5565 21.2348L32.5565 16.5392C32.5565 15.9131 32.7131 15.3914 33.7043 15.3914L38.9739 15.3914L38.9739 21.2348L53.5304 21.2348L53.5304 23.5827L38.974 23.5827L38.974 28.2783L50.6087 28.2783C50.6087 28.2783 49.4087 34.8 45.8087 41.2174C53.8956 44.087 65.3217 48.5739 69.1304 50.087C70.9565 45.7566 72 41.0087 72 36C72 16.1739 55.8261 0 36 0C16.1739 0 0 16.1739 0 36C0 55.8261 16.1739 72 36 72C48 72 58.5914 66.1044 65.1652 57.0783C58.9566 54.0522 48.7826 48.9391 42.4696 45.9131C39.4957 49.3566 35.0609 52.7479 30.0522 54.2088C26.9218 55.1479 24.0522 55.5131 21.1305 54.887C18.1565 54.261 16.0174 52.9044 14.7652 51.5479C14.1533 50.8339 13.4416 50.0202 12.8738 48.9607C12.8662 48.9325 12.854 48.9062 12.8348 48.887C12.8477 48.9117 12.8607 48.9363 12.8738 48.9607C12.887 49.009 12.887 49.0628 12.887 49.0957ZM14.1913 43.5132C13.8261 45.2349 14.1391 47.4262 15.7565 49.148C17.7913 51.1828 20.8696 51.7567 22.2261 51.861C25.8261 52.1219 29.687 50.2958 32.6087 48.3132C33.7565 47.5306 35.687 45.9132 37.5653 43.4088C33.3913 41.2697 28.174 38.8697 22.6435 39.0784C19.7218 39.1828 17.687 39.7567 16.2261 40.5393C15.3391 41.2175 14.4522 42.2088 14.1913 43.5132Z" fill-rule="evenodd"  fill="#06B4FD" >
</path>
</svg>
